<?xml version="1.0" encoding="UTF-8" standalone="no"?>
<!DOCTYPE svg PUBLIC "-//W3C//DTD SVG 1.1//EN" "http://www.w3.org/Graphics/SVG/1.1/DTD/svg11.dtd">
<svg width="100%" height="100%" viewBox="0 0 23 12" version="1.1" xmlns="http://www.w3.org/2000/svg" xmlns:xlink="http://www.w3.org/1999/xlink" xml:space="preserve" xmlns:serif="http://www.serif.com/" style="fill-rule:evenodd;clip-rule:evenodd;stroke-linejoin:round;stroke-miterlimit:2;">
    <g transform="matrix(1,0,0,1,-0.75,-6.75)">
        <path d="M3.75,6.75C2.104,6.75 0.75,8.104 0.75,9.75L0.75,15.75C0.75,17.396 2.104,18.75 3.75,18.75L18.75,18.75C20.396,18.75 21.75,17.396 21.75,15.75L21.75,15.713C22.606,15.539 23.25,14.783 23.25,13.875L23.25,11.625C23.25,10.718 22.606,9.961 21.75,9.788L21.75,9.75C21.75,8.104 20.396,6.75 18.75,6.75L3.75,6.75ZM18.75,8.25C19.573,8.25 20.25,8.927 20.25,9.75L20.25,15.75C20.25,16.573 19.573,17.25 18.75,17.25L3.75,17.25C2.927,17.25 2.25,16.573 2.25,15.75L2.25,9.75C2.25,8.927 2.927,8.25 3.75,8.25L18.75,8.25ZM4.5,9.75C4.089,9.75 3.75,10.089 3.75,10.5L3.75,15C3.75,15.414 4.086,15.75 4.5,15.75L18,15.75C18.411,15.75 18.75,15.411 18.75,15L18.75,10.5C18.75,10.089 18.411,9.75 18,9.75L4.5,9.75Z" style="fill:rgb(227,228,225);"/>
    </g>
</svg>
