<?xml version="1.0" encoding="UTF-8" standalone="no"?>
<!DOCTYPE svg PUBLIC "-//W3C//DTD SVG 1.1//EN" "http://www.w3.org/Graphics/SVG/1.1/DTD/svg11.dtd">
<svg width="100%" height="100%" viewBox="0 0 22 16" version="1.1" xmlns="http://www.w3.org/2000/svg" xmlns:xlink="http://www.w3.org/1999/xlink" xml:space="preserve" xmlns:serif="http://www.serif.com/" style="fill-rule:evenodd;clip-rule:evenodd;stroke-linejoin:round;stroke-miterlimit:2;">
    <g transform="matrix(1,0,0,1,-1.154125,-3.75025)">
        <path d="M1.371,8.143C7.229,2.286 16.727,2.286 22.584,8.143C22.725,8.284 22.804,8.475 22.804,8.674C22.804,8.872 22.725,9.063 22.584,9.204L22.054,9.734C21.763,10.025 21.285,10.025 20.994,9.734C16.014,4.755 7.941,4.755 2.962,9.734C2.671,10.025 2.193,10.025 1.902,9.734L1.372,9.204C1.081,8.913 1.081,8.435 1.372,8.144L1.371,8.143ZM4.553,11.325C8.653,7.225 15.302,7.225 19.403,11.325C19.544,11.466 19.623,11.657 19.623,11.856C19.623,12.054 19.544,12.245 19.403,12.386L18.873,12.916C18.732,13.057 18.541,13.136 18.342,13.136C18.143,13.136 17.952,13.057 17.811,12.916C14.611,9.716 9.344,9.716 6.144,12.916C5.853,13.207 5.375,13.207 5.084,12.916L4.554,12.386C4.263,12.095 4.263,11.617 4.554,11.326L4.553,11.325ZM7.757,14.507C8.882,13.382 10.409,12.749 12,12.749C13.591,12.749 15.118,13.382 16.243,14.507C16.384,14.648 16.463,14.839 16.463,15.038C16.463,15.236 16.384,15.427 16.243,15.568L15.713,16.098C15.572,16.239 15.381,16.318 15.183,16.318C14.984,16.318 14.793,16.239 14.652,16.098C13.949,15.395 12.994,14.999 12,14.999C11.006,14.999 10.051,15.395 9.348,16.098C9.057,16.389 8.579,16.389 8.288,16.098L7.758,15.568C7.467,15.277 7.467,14.799 7.758,14.508L7.757,14.507ZM10.939,17.689C11.22,17.408 11.602,17.249 12,17.249C12.398,17.249 12.78,17.408 13.061,17.689C13.202,17.83 13.281,18.021 13.281,18.22C13.281,18.418 13.202,18.609 13.061,18.75L12.531,19.28C12.39,19.421 12.199,19.5 12.001,19.5C11.802,19.5 11.611,19.421 11.47,19.28L10.94,18.75C10.649,18.459 10.649,17.981 10.94,17.69L10.939,17.689Z" style="fill:rgb(227,228,225);"/>
    </g>
</svg>
